<svg height="334.366928" viewBox="0 0 321.79532 359.99933" width="299.072641" xmlns="http://www.w3.org/2000/svg"><path d="m0 0c26.952-17.114 58.916-14.058 58.916-14.058s-32.688-105.353-120.67-137.456c-87.986 32.103-120.677 137.456-120.677 137.456s31.956-3.031 58.909 14.082l-1.675 2.756 3.042 4.9s.264.458.642 1.304c-15.236 8.386-16.098 18.961-15.078 24.882 2.057 11.366 11.223 18.77 23.48 19.115.252 2.945.381 5.915.381 8.876 0 12.227-2.118 24.188-6.119 34.591-1.559 4.031-.227 8.667 3.243 11.265 14.244 10.654 52.196 10.773 53.807 10.773 1.606 0 39.563-.119 53.802-10.774 3.462-2.583 4.801-7.214 3.25-11.255-4.003-10.412-6.121-22.373-6.121-34.6 0-2.789.151-5.726.462-8.875 12.353-.322 21.596-7.729 23.645-19.055 1.027-5.977.161-16.557-15.067-24.942.388-.873.668-1.348.672-1.359l2.884-4.846z" fill="#a9afb3" transform="matrix(1.3333333 0 0 -1.3333333 243.24066551475 157.98066598185)"/><path d="m0 0c-.472.496-.969.98-1.508 1.437l6.584 3.306s-1.945 3.136-3.176 8.483c7.746 3.248 18.477 9.709 16.688 20.153-1.819 10.019-11.198 15.099-22.907 12.968-.777 5.272-1.31 10.678-1.31 16.181 0 13.06 2.272 25.87 6.573 37.047.461 1.201.071 2.563-.965 3.334-10.321 7.721-39.587 9.412-49.705 9.412-10.12 0-39.384-1.691-49.71-9.412-1.032-.771-1.425-2.133-.957-3.334 4.299-11.177 6.572-23.987 6.572-37.047 0-5.503-.405-10.911-1.183-16.183-11.706 2.133-20.962-2.947-22.775-12.968-1.796-10.442 8.938-16.903 16.681-20.151-1.228-5.347-3.175-8.483-3.175-8.483l6.587-3.306c-.383-.326-.745-.671-1.1-1.018-16.1-10.101-33.353-20.642-61.59-20.642 19.635-50.703 60.122-104.966 110.696-123.346 50.568 18.38 91.055 72.643 110.69 123.346-27.971 0-45.135 10.253-61.01 20.223" transform="matrix(1.3333333 0 0 -1.3333333 227.14279925053 158.87546595948)"/><g fill="#fff"><path d="m0 0c-.025-.266-.077-.52-.077-.792 0-5.615 4.338-10.168 9.698-10.168 5.363 0 9.709 4.553 9.709 10.168 0 3.098-1.352 5.839-3.437 7.704-1.989-.602-4.433-1.706-7.376-3.654-3.527-2.335-6.356-3.152-8.517-3.258" transform="matrix(1.3333333 0 0 -1.3333333 177.61826715531 143.39639967979)"/><path d="m0 0c-2.634 0-4.903-8.936-5.552-12.38-.03-.127-.124-.229-.249-.256-.124-.038-.255.012-.335.115-.084.109-2.048 2.647-3.012 5.658l-4.25 1.665c-.386-.773-1.657-2.681-4.795-2.681-2.993 0-6.874 1.71-11.529 5.077-.124.091-.174.253-.114.391.058.142.207.233.355.198l5.976-.953c-.046.586-.099 1.685.007 2.675-.599.264-2.43.991-4.499.991-2.055 0-3.767-.699-5.094-2.079-2.435-2.539-3.526-7.312-3.241-14.189.002-.11-.045-.219-.139-.28-.093-.065-.206-.08-.312-.037-.176.072-4.021 1.699-5.66 7.315-.524-3.456-.997-12.007 6.451-14.651.131-.044.219-.167.219-.306 0 0 0-2.094.033-4.645 4.429.075 9.225 1.155 14.262 3.214 4.013 1.646 7.596 2.67 10.651 3.046.969 1.718 2.185 3.179 3.618 4.344.101.089.249.099.368.031.118-.069.183-.201.161-.336-.005-.03-.481-3.157-.549-4.386l7.357-2.06 7.328 2.052c-3.153 19.537-6.023 22.467-7.456 22.467" transform="matrix(1.3333333 0 0 -1.3333333 160.84200090805 135.69146653908)"/><path d="m0 0c-1.435 0-2.979-.343-4.459-.998-.104-.045-.222-.037-.32.028-.093.065-.146.173-.141.285.007.199.337 4.885 12.341 4.885 10.736 0 11 1.191 11.401 2.99 0 .009.003.017.005.023-.39-.026-1.013-.059-1.798-.059-2.674 0-6.486.357-9.583 2.034-.761-.552-3.891-2.545-9.224-2.545-5.741 0-7.443-1.714-7.458-1.73-.065-.064-.161-.095-.239-.103-.093 0-.176.036-.242.103-.035.043-.864.946-1.158 2.597-5.651-.722-11.286-.699-16.052.105 1.616-4.597 4.723-8.613 9.233-11.944.015 1.265.194 4.035 1.383 5.658.065.087.161.133.264.133.023 0 .045 0 .065-.004.129-.027.23-.126.255-.25.025-.111 2.498-10.971 8.913-16.74 2.173-1.955 4.613-3.031 6.862-3.031 4.275 0 7.045 3.689 7.045 9.402 0 7.971-4.444 9.161-7.093 9.161" transform="matrix(1.3333333 0 0 -1.3333333 151.11920115112 201.98519821507)"/><path d="m0 0c-2.455.318-4.495.043-6.013-.811-.26-1.159-.816-4.43.063-8.215.514 1.659 1.742 4.501 4.255 5.374 4.739 1.645 4.792 2.525 4.781 2.622-.011.103-.211.655-3.086 1.03" transform="matrix(1.3333333 0 0 -1.3333333 174.19746724083 202.59026486661)"/><path d="m0 0s-.277-5.314-1.501-7.675c-1.22-2.364-2.447-5.908-1.36-7.385 0 0 7.897 1.623 2.861 15.06" transform="matrix(1.3333333 0 0 -1.3333333 220.51106608299 142.51026636861)"/><path d="m0 0s5.474 3.549 15.488-2.242c10.012-5.784 13.406-2.217 13.406-2.217s-17.525 14.838-28.894 4.459" transform="matrix(1.3333333 0 0 -1.3333333 114.56466873165 130.85693332661)"/></g><path d="m0 0 12.008 11.958c-.357.843-.818 1.629-1.372 2.33l-12.81-12.496c.636-.7 1.368-1.304 2.174-1.792" fill="#9ba1a6" transform="matrix(1.3333333 0 0 -1.3333333 184.00066699575 156.19453269317)"/><path d="m0 0-9.908-9.66c.624-.134 1.264-.202 1.921-.202.182 0 .355.018.532.028l7.317 7.297c.108.601.172 1.217.172 1.852 0 .229-.021.458-.034.685" fill="#9ba1a6" transform="matrix(1.3333333 0 0 -1.3333333 201.09559990171 144.86013297653)"/><path d="m0 0s-5.477 3.549-15.485-2.242c-10.014-5.784-13.411-2.217-13.411-2.217s17.528 14.838 28.896 4.459" fill="#fff" transform="matrix(1.3333333 0 0 -1.3333333 207.46426640916 130.85693332661)"/><path d="m0 0c-6.245-.681-12.489-2.891-12.489-2.891s6.859-12.208 5.104-41.281c2.898.285 7.241.651 7.385.955z" fill="#fff" transform="matrix(1.3333333 0 0 -1.3333333 127.12106841774 24.48880265248)"/><path d="m0 0c-3.248 0-7.486-1.065-12.613-3.165-7.264-2.973-14.385-3.694-20.801-2.117-3.779 1.374-6.008 4.174-6.008 7.505 0 .343.023.684.066 1.021-1.111-1.322-1.722-2.963-1.722-4.683 0-1.769.667-3.495 1.878-4.858 1.561-1.845 4.016-3.472 7.302-4.841 3.727-1.555 8.574-2.376 14.023-2.376 12.834 0 24.527 4.424 24.527 9.284-.007.147-.299 4.23-6.652 4.23" fill="#fff" transform="matrix(1.3333333 0 0 -1.3333333 150.02466784515 169.75973235404)"/><path d="m0 0c.043-.337.066-.676.066-1.017 0-3.332-2.227-6.132-5.958-7.49-2.264-.56-4.58-.833-6.934-.833-4.48 0-9.164.987-13.92 2.934-5.122 2.1-9.365 3.165-12.607 3.165-6.356 0-6.646-4.08-6.656-4.256 0-2.324 2.762-4.697 7.579-6.483 4.755-1.766 10.931-2.774 16.947-2.774 5.444 0 10.29.821 14.02 2.376 3.291 1.371 5.751 2.998 7.302 4.832 1.216 1.37 1.881 3.095 1.881 4.866 0 1.719-.613 3.357-1.72 4.68" fill="#fff" transform="matrix(1.3333333 0 0 -1.3333333 225.11786596782 165.43893246206)"/><path d="m0 0c3.419.013 20.091-.451 37.918 9.42 17.486 9.897 23.62 2.831 23.739 2.824-.201.012-5.481 12.821-28.196-.601-10.111-5.847-22.593-7.422-33.466-7.372-10.868-.073-23.354 1.499-33.479 7.256-22.755 13.161-28.02.484-28.207.491.116-.006 6.238 6.994 23.748-2.714 17.842-9.717 36.709-9.308 37.943-9.304" fill="#a9afb3" transform="matrix(1.3333333 0 0 -1.3333333 160.92240090604 126.21546677598)"/><path d="m0 0 5.498 5.134c-5.062.423-17.787 1.32-34.46 1.32h-.005-.01c-16.669 0-29.385-.897-34.457-1.316l5.5-5.138-8.189-2.118c-.02-.053-.04-.105-.058-.16 1.169-.594 2.382-1.252 3.662-2.005 10.124-5.868 22.611-7.471 33.479-7.397 10.872-.051 23.355 1.556 33.466 7.514 1.289.775 2.514 1.455 3.692 2.065z" fill="#b0002a" transform="matrix(1.3333333 0 0 -1.3333333 199.63626660486 97.40946749613)"/><path d="m0 0c-7.642 3.375-17.842 8.955-26.879 17.366 5.023-10.821 13.199-23.866 32.527-36.553l1.747 8.217c-4.071 3.619-6.259 7.921-7.395 10.97" fill="#fff" transform="matrix(1.3333333 0 0 -1.3333333 145.31426796291 263.72973000479)"/><path d="m0 0c7.637 3.375 17.838 8.955 26.88 17.366-5.027-10.821-13.205-23.866-32.533-36.553l-1.742 8.217c4.066 3.619 6.257 7.921 7.395 10.97" fill="#fff" transform="matrix(1.3333333 0 0 -1.3333333 176.48720051692 263.72973000479)"/><path d="m0 0-5.477-9.379-5.481 9.379s-19.58 6.418-31.5 23.34l.476-8.978s.924-14.793 30.515-27.793c1.76.348 3.84.551 6.073.551 2.188 0 4.218-.194 5.953-.526 29.543 12.991 30.465 27.768 30.465 27.768l.478 8.978c-11.922-16.922-31.502-23.34-31.502-23.34" fill="#fff" transform="matrix(1.3333333 0 0 -1.3333333 168.20466739065 238.33746397293)"/><path d="m0 0c-10.752-6.566-22.465-12.801-37.863-15.654 2.198-4.823 6.177-12.711 12.263-21.853l19.252-3.033-4.479-16.043c10.484-11.669 24.129-23.443 41.491-32.485 0 0-40.421 47.026-30.664 89.068" fill="#b0002a" transform="matrix(1.3333333 0 0 -1.3333333 92.94360260551 186.41666527095)"/><path d="m0 0c6.084 9.142 10.065 17.03 12.258 21.853-15.395 2.853-27.108 9.088-37.858 15.654 9.752-42.042-30.669-89.068-30.669-89.068 17.363 9.042 31.011 20.816 41.493 32.485l-4.481 16.043z" fill="#b0002a" transform="matrix(1.3333333 0 0 -1.3333333 262.99146502098 236.42599735405)"/></svg>